<svg xmlns="http://www.w3.org/2000/svg" id="Capa_2" data-name="Capa 2" viewBox="0 0 225.4 36.3"><defs><style> .cls-1 { fill: #fff; } </style></defs><g id="Capa_1-2" data-name="Capa 1"><path class="cls-1" d="M168.91,22.86h-4.01v7.19h-5.27V6.08h9.8c5.72,0,9.18,3.39,9.18,8.29v.07c0,5.55-4.32,8.43-9.69,8.43M173.26,14.47c0-2.36-1.64-3.63-4.28-3.63h-4.08v7.33h4.18c2.64,0,4.18-1.57,4.18-3.63v-.07Z"></path><rect class="cls-1" x="180.83" y="6.09" width="5.21" height="23.96"></rect><path class="cls-1" d="M200.32,30.05v-1.99c-1.27,1.4-3.01,2.33-5.55,2.33-3.46,0-6.3-1.99-6.3-5.62v-.07c0-4.01,3.05-5.86,7.4-5.86,1.85,0,3.18.31,4.49.75v-.31c0-2.16-1.34-3.36-3.94-3.36-1.99,0-3.39.38-5.07.99l-1.3-3.97c2.02-.89,4.01-1.47,7.12-1.47,5.69,0,8.19,2.95,8.19,7.91v10.65h-5.04ZM200.43,22.65c-.89-.41-2.06-.68-3.32-.68-2.23,0-3.6.89-3.6,2.54v.07c0,1.4,1.16,2.23,2.84,2.23,2.43,0,4.08-1.33,4.08-3.22v-.93Z"></path><path class="cls-1" d="M218.24,30.78c-1.43,3.79-2.96,5.21-6.12,5.21-1.91,0-3.34-.49-4.69-1.29l1.77-3.82c.7.42,1.56.73,2.26.73.9,0,1.39-.28,1.84-1.22l-7.3-18.7h5.6l4.24,12.69,4.07-12.69h5.49l-7.16,19.08Z"></path><path class="cls-1" d="M0,30.21C.01,22.14.02,14.09.03,6.02,5.43,4.02,10.83,2.01,16.23,0c.02.07-.03,36.17-.05,36.27-5.39-2.02-10.78-4.04-16.18-6.06M14.85,24.77c0-4.65.01-9.29.02-13.94-.05,0-.1,0-.15-.01-.87-.05-1.73.05-2.57.27-1.48.39-2.72,1.17-3.74,2.3-.61.68-1.09,1.44-1.5,2.25-.47.91-.79,1.87-1.05,2.86-.35,1.33-.55,2.68-.65,4.05-.05.59-.08,1.19-.09,1.79-.03,1.28,0,2.57.09,3.85.05.71.12,1.41.22,2.11.02.11.03.21.05.32,1.53.51,3.07,1.02,4.61,1.53,0-2.7,0-5.38.01-8.07,1.59.23,3.17.45,4.75.67M.66,7.22c0,3.77-.01,7.53-.02,11.29.02-.02.02-.03.02-.05.07-.46.14-.92.22-1.38.16-.92.37-1.83.62-2.73.41-1.46.94-2.88,1.62-4.23.59-1.18,1.3-2.29,2.16-3.3.48-.57,1.01-1.1,1.58-1.59.02-.02.04-.04.06-.05,0,0,0-.01-.01-.01-2.08.68-4.16,1.36-6.25,2.05"></path><path class="cls-1" d="M24.29,30.23c-2.23,0-4.44,0-6.67,0,0-.46,0-.92,0-1.39,1.76,0,3.51,0,5.26,0,0-7.13.02-14.25.03-21.38-1.75,0-3.51,0-5.25,0-.02-.07-.03-1.29,0-1.4,2.22,0,4.44,0,6.66.01-.01,8.05-.02,16.11-.03,24.17"></path><path class="cls-1" d="M50.7,28.3c-1.04.41-2.41.82-4.13,1.22-1.71.39-3.41.59-5.12.59-3.94,0-7.03-1.06-9.26-3.21-2.23-2.14-3.33-5.1-3.33-8.87s1.12-6.51,3.37-8.71c2.24-2.21,5.38-3.32,9.41-3.32,1.53,0,2.97.14,4.36.42,1.38.27,2.92.82,4.61,1.64v5.43h-.66c-.29-.23-.72-.53-1.28-.93-.55-.4-1.09-.74-1.62-1.02-.6-.34-1.3-.62-2.11-.86-.8-.24-1.65-.36-2.56-.36-1.05,0-2,.15-2.87.46-.87.31-1.63.79-2.32,1.43-.65.63-1.17,1.41-1.54,2.37-.38.97-.58,2.07-.58,3.32,0,2.56.69,4.54,2.04,5.89,1.36,1.36,3.36,2.05,6.02,2.05.23,0,.48-.01.75-.03.27-.01.53-.02.75-.04v-4.55h-4.62v-4.36h10.69v11.43Z"></path><rect class="cls-1" x="54.56" y="6.09" width="5.94" height="4.25"></rect><polygon class="cls-1" points="60.33 29.72 60.33 29.72 54.72 29.72 54.72 11.7 60.33 11.7 60.33 29.72"></polygon><path class="cls-1" d="M82.6,27.71c0,1.65-.22,3.02-.7,4.14-.47,1.11-1.12,1.99-1.96,2.62-.84.65-1.85,1.11-3.03,1.39-1.19.29-2.53.44-4.03.44-1.22,0-2.41-.07-3.59-.23-1.18-.13-2.19-.31-3.05-.52v-4.38h.68c.69.27,1.52.52,2.5.74.99.23,1.87.34,2.65.34,1.03,0,1.89-.1,2.52-.29.65-.19,1.14-.47,1.48-.82.33-.32.57-.75.7-1.28.15-.51.23-1.14.23-1.87v-.33c-.68.55-1.43.99-2.25,1.32-.81.31-1.73.48-2.74.48-2.45,0-4.33-.74-5.66-2.21-1.32-1.47-1.98-3.71-1.98-6.72,0-1.44.2-2.69.6-3.73.4-1.06.98-1.97,1.71-2.75.69-.73,1.53-1.29,2.53-1.7.99-.4,2.02-.6,3.06-.6.94,0,1.81.11,2.58.33.78.23,1.48.54,2.11.93l.2-.78h5.44v15.47ZM76.99,24.21h0v-7.92c-.33-.14-.71-.25-1.2-.32-.46-.08-.88-.11-1.25-.11-1.47,0-2.57.42-3.3,1.26-.74.84-1.1,2.02-1.1,3.54,0,1.69.32,2.85.94,3.52.63.66,1.55,1,2.78,1,.56,0,1.11-.09,1.64-.26.54-.18,1.03-.42,1.48-.71"></path><path class="cls-1" d="M98.47,27.86c-.3.24-.67.5-1.12.83-.46.33-.87.57-1.26.76-.55.25-1.12.43-1.72.55-.59.11-1.24.18-1.94.18-1.66,0-3.05-.52-4.17-1.55-1.13-1.02-1.68-2.33-1.68-3.93,0-1.28.27-2.32.85-3.13.57-.8,1.38-1.44,2.42-1.9,1.04-.47,2.33-.8,3.86-1.01,1.53-.19,3.12-.34,4.78-.43v-.1c0-.97-.4-1.63-1.19-2-.78-.38-1.94-.55-3.47-.55-.93,0-1.91.16-2.96.49-1.04.32-1.79.57-2.26.75h-.51v-4.22c.59-.16,1.55-.34,2.88-.55,1.34-.22,2.68-.33,4.02-.33,3.18,0,5.48.5,6.9,1.48,1.42.98,2.12,2.51,2.12,4.6v11.89h-5.56v-1.86ZM98.47,25.15h0v-3.64c-.76.06-1.57.15-2.46.27-.88.1-1.55.23-2.01.38-.55.18-.98.43-1.28.77-.3.34-.44.77-.44,1.33,0,.37.03.65.09.88.07.24.21.45.46.65.24.21.52.37.87.47.32.1.84.15,1.55.15.55,0,1.11-.12,1.69-.35.58-.23,1.09-.53,1.52-.89"></path><path class="cls-1" d="M119.26,15.01h-.17c-.46-.11-.89-.18-1.32-.23-.42-.05-.92-.08-1.51-.08-.94,0-1.83.2-2.7.62-.88.42-1.72.95-2.53,1.6v12.8h-3.03V11.7h3.03v2.66c1.21-.96,2.27-1.65,3.19-2.05.92-.4,1.86-.6,2.82-.6.52,0,.91.02,1.15.04.23.03.58.08,1.07.15v3.12Z"></path><path class="cls-1" d="M136.58,21.32h-12.81c0,1.08.16,2.01.48,2.8.33.8.77,1.44,1.33,1.96.54.49,1.18.87,1.92,1.12.74.25,1.55.38,2.44.38,1.2,0,2.38-.24,3.58-.72,1.2-.46,2.06-.92,2.56-1.39h.15v3.19c-.98.42-1.98.75-3.01,1.04-1.03.28-2.11.41-3.24.41-2.88,0-5.13-.78-6.75-2.33-1.62-1.56-2.44-3.79-2.44-6.66s.78-5.1,2.34-6.76c1.54-1.67,3.59-2.51,6.12-2.51,2.34,0,4.15.69,5.42,2.06,1.27,1.37,1.91,3.31,1.91,5.83v1.58ZM133.73,19.09h0c0-1.54-.4-2.72-1.17-3.56-.75-.84-1.92-1.27-3.48-1.27s-2.81.46-3.74,1.4c-.93.91-1.46,2.07-1.58,3.44h9.96Z"></path><path class="cls-1" d="M155.11,29.72h-2.92v-1.82c-.84.73-1.72,1.3-2.64,1.7-.92.4-1.9.6-2.97.6-2.08,0-3.72-.79-4.95-2.4-1.21-1.59-1.81-3.8-1.81-6.63,0-1.48.2-2.78.63-3.94.41-1.16.99-2.14,1.7-2.93.7-.79,1.52-1.39,2.46-1.81.94-.41,1.92-.63,2.93-.63.91,0,1.72.1,2.42.29.71.19,1.46.49,2.23.89v-6.95h2.92v23.64ZM152.18,25.44h0v-9.97c-.79-.36-1.49-.6-2.12-.73-.63-.14-1.3-.21-2.03-.21-1.64,0-2.92.58-3.84,1.71-.9,1.15-1.36,2.76-1.36,4.86s.35,3.63,1.07,4.7c.7,1.08,1.83,1.61,3.38,1.61.83,0,1.67-.18,2.53-.55.85-.36,1.64-.84,2.38-1.42"></path></g></svg>